PathFileType	4	(X/Y/Z)	D:\TRACE\v60_Jaco2_6-2-23\ArmBody_Mo2_DMP_1-platform.trc
DataRate	CameraRate	NumFrames	NumMarkers	Units	OrigDataRate	OrigDataStartFrame	OrigNumFrames
100.00	100.00	      50	5	mm	100.00	3276	      6551
Frame#	Time	Left_Front			Right_Front			Left_Aft			Right_Aft			Post			
		X1	Y1	Z1	X2	Y2	Z2	X3	Y3	Z3	X4	Y4	Z4	X5	Y5	Z5	

3276	32.750				740.65289	-6.12635	-636.87408	-759.00073	17.56840	477.04202	658.62915	21.84615	579.16449	-36.17228	1283.78613	-999.59436	
3277	32.760				739.79480	-7.26066	-637.22888	-759.60071	18.41031	476.78580	657.81781	22.71835	578.58185	-37.03604	1281.87134	-1002.11810	
3278	32.770				739.20862	-8.53038	-637.11743	-760.38287	19.12448	476.58319	656.87329	23.69733	578.16595	-37.99435	1279.67786	-1004.70844	
3279	32.780				737.99304	-10.22733	-637.59790	-761.68939	20.59846	475.69031	656.20343	24.76604	577.81964	-38.37267	1277.62793	-1007.52661	
3280	32.790				737.32831	-11.35816	-638.11633	-762.22552	21.39458	475.42682	655.69727	25.93446	577.55493	-38.67777	1275.78479	-1010.58167	
3281	32.800				736.96289	-12.42944	-638.12012	-762.88885	22.25002	475.01651	654.77637	27.01922	577.29333	-39.53701	1273.94409	-1014.00092	
3282	32.810				736.09656	-13.85804	-638.35596	-763.54181	23.08319	474.53360	653.96332	27.95735	576.96759	-40.25550	1271.94885	-1017.53772	
3283	32.820				735.53632	-14.86147	-638.63220	-764.36859	24.02318	474.36807	653.37079	28.73379	576.57391	-41.28435	1269.94702	-1020.77051	
3284	32.830				734.69049	-16.24455	-638.88513	-765.04645	24.82393	473.95355	652.70184	29.79926	576.21838	-41.54010	1267.93359	-1023.88373	
3285	32.840				734.30872	-17.69676	-638.97595	-765.31842	25.24831	473.63062	652.22614	30.86684	575.89502	-42.33849	1265.91907	-1026.89941	
3286	32.850				733.70959	-18.80636	-639.17682	-766.10388	26.64589	473.35544	651.68445	31.90189	575.63397	-42.36654	1263.99744	-1029.92920	
3287	32.860				732.90253	-19.88692	-639.75092	-766.80316	27.56634	473.06976	651.17633	33.01795	575.30878	-43.25697	1262.07129	-1032.71240	
3288	32.870				732.58905	-21.23769	-639.90271	-767.09442	28.10692	472.66913	650.76697	34.01460	574.92035	-43.61129	1260.27344	-1035.44946	
3289	32.880				732.02997	-22.61046	-640.36700	-767.66083	29.14233	472.26385	650.02228	34.85418	574.39575	-44.07287	1258.12524	-1037.87500	
3290	32.890				731.44257	-23.83535	-640.49078	-767.77820	29.62156	472.03009	649.48969	35.74888	574.00470	-44.38398	1256.34412	-1040.19263	
3291	32.900				731.21143	-25.21520	-640.81573	-768.14319	30.51361	471.72470	649.26984	36.85030	573.70294	-44.57706	1254.31323	-1042.67566	
3292	32.910				730.82330	-26.12766	-640.85529	-768.86206	31.57601	471.25195	648.96167	37.81598	573.46436	-45.27959	1252.39734	-1044.92139	
3293	32.920				730.33081	-27.39024	-641.34143	-769.42242	32.29609	471.06195	648.71399	38.67005	573.18024	-45.25687	1250.76086	-1046.91309	
3294	32.930				730.51874	-28.36174	-641.38055	-769.39948	32.89734	470.84454	648.36401	39.63810	573.03802	-45.93656	1248.99463	-1049.19409	
3295	32.940				730.21631	-29.60282	-641.51764	-769.49188	33.46356	470.56067	648.38507	40.51534	572.73175	-45.95712	1247.14282	-1050.82715	
3296	32.950				729.96191	-30.58153	-641.69659	-769.75122	34.30190	470.13098	648.15704	41.17797	572.30597	-46.05169	1245.70032	-1052.78186	
3297	32.960				729.94702	-31.71330	-641.94128	-769.75293	34.97783	469.88647	647.72974	41.87518	571.74274	-46.11133	1244.05762	-1054.86633	
3298	32.970				729.84399	-32.49268	-642.10706	-769.77533	35.67009	469.68564	648.03143	42.81293	571.54730	-46.57583	1242.35559	-1056.42188	
3299	32.980				729.60675	-33.79045	-642.36487	-769.89355	36.44456	469.26102	647.70587	43.86522	571.24744	-46.29419	1240.74438	-1058.39258	
3300	32.990				729.78156	-35.09683	-642.37891	-769.79382	36.98003	468.95541	647.89648	44.74121	570.98462	-46.54264	1238.85693	-1060.17444	
3301	33.000				729.62518	-35.98307	-642.90967	-770.20349	38.34554	467.98395	647.88251	45.65392	570.69867	-46.35766	1237.06433	-1062.33582	
3302	33.010				729.43280	-37.40438	-642.80267	-769.85547	38.42416	468.48373	647.61713	46.40570	570.34180	-46.16962	1235.23828	-1064.58167	
3303	33.020				729.53558	-38.43550	-643.10486	-769.84985	39.18084	467.97668	647.75049	47.09771	569.95355	-46.04329	1233.53870	-1067.28296	
3304	33.030				730.01190	-39.01193	-643.10571	-769.89020	39.94093	467.79834	647.63739	47.81392	569.42499	-46.15349	1232.10681	-1069.95093	
3305	33.040				730.36957	-39.70831	-642.97729	-769.48456	40.38971	467.61398	647.58374	48.28446	568.77637	-45.79018	1230.44006	-1072.72668	
3306	33.050				730.49585	-40.91846	-643.36279	-769.21045	41.18946	467.31714	649.74377	50.39009	570.08569	-45.52333	1228.89917	-1075.25500	
3307	33.060				730.73907	-41.89990	-643.58588	-768.79059	41.50488	467.07706	649.26196	50.40323	569.24561	-44.91787	1227.35242	-1077.87317	
3308	33.070				731.29669	-42.46977	-643.62115	-768.63702	42.07596	466.85739	649.35919	50.96474	568.79163	-44.11515	1226.00208	-1080.19751	
3309	33.080				731.92596	-43.29567	-643.72211	-768.21979	42.69458	466.55161	649.51306	51.32951	568.41321	-44.40361	1224.82239	-1082.58386	
3310	33.090				732.00946	-43.73564	-644.04456	-767.94092	43.24475	466.37238	649.55737	51.71091	568.07660	-43.92032	1223.54053	-1084.87134	
3311	33.100				732.28162	-44.28784	-644.03851	-767.52191	43.52033	466.10471	650.31616	52.45780	567.96606	-43.44916	1222.56091	-1087.26123	
3312	33.110				732.77997	-45.05483	-644.02167	-767.26910	43.87864	466.04706	650.68146	52.89344	567.82526	-43.06732	1221.50745	-1089.20935	
3313	33.120				733.18311	-45.79790	-644.01709	-766.67310	44.37078	465.84167	651.11237	53.34027	567.70410	-42.60205	1220.19116	-1091.06995	
3314	33.130				733.42603	-46.42484	-644.19458	-766.30157	44.73120	465.79910	651.44220	53.76056	567.49408	-42.04503	1219.18396	-1092.73706	
3315	33.140				733.92603	-46.97845	-644.37006	-765.63574	45.05219	465.67480	651.83691	54.29169	567.36749	-41.30212	1218.31091	-1094.05408	
3316	33.150				734.61511	-47.61361	-644.47498	-765.33252	45.42690	465.43137	652.35730	54.87188	567.22827	-41.01288	1217.45251	-1095.46667	
3317	33.160				735.02563	-48.06736	-644.48041	-765.00415	45.88047	465.19791	652.74005	55.21780	567.02515	-40.64871	1216.59058	-1096.66614	
3318	33.170				735.39844	-48.41953	-644.48303	-764.34601	46.13156	465.05896	653.18793	55.43613	566.74677	-40.45506	1215.76538	-1097.63647	
3319	33.180				735.92950	-48.84928	-644.41187	-763.90344	46.51002	464.90997	653.72235	55.74740	566.57434	-39.51449	1214.73157	-1098.55688	
3320	33.190				736.64380	-49.55236	-644.48871	-763.31995	46.80225	464.77765	654.19623	56.24820	566.49310	-39.16891	1214.17114	-1098.86609	
3321	33.200				737.12927	-49.89825	-644.77588	-762.78040	47.16420	464.70682	654.83942	56.69249	566.33508	-38.32309	1213.62122	-1099.35107	
3322	33.210				737.64105	-50.22365	-644.83069	-762.28143	47.37018	464.62076	655.42816	56.95975	566.24298	-37.79768	1212.85278	-1100.15515	
3323	33.220				738.13190	-50.67961	-644.75745	-761.61920	47.43404	464.59131	656.33496	57.31010	566.05560	-37.46234	1212.32751	-1100.36926	
3324	33.230				738.54803	-50.99419	-644.81543	-761.10992	47.60388	464.53720	656.59381	57.30613	565.90521	-37.25141	1211.96765	-1100.42480	
3325	33.240				739.21820	-51.34099	-644.96613	-760.57330	47.81412	464.45715	657.12097	57.51819	565.93311	-36.50120	1211.47864	-1100.55371	
